<?xml version="1.0" encoding="UTF-8"?>
<svg width="13px" height="9px" viewBox="0 0 13 9" version="1.1" xmlns="http://www.w3.org/2000/svg" xmlns:xlink="http://www.w3.org/1999/xlink">
    <!-- Generator: Sketch 47.1 (45422) - http://www.bohemiancoding.com/sketch -->
    <title>check</title>
    <desc>Created with Sketch.</desc>
    <defs></defs>
    <g id="Page-1" stroke="none" stroke-width="1" fill="none" fill-rule="evenodd">
        <g id="Artboard" transform="translate(-1.000000, -2.000000)" fill="#ffffff">
            <path d="M13.1222243,3.96316125 C13.1222243,3.78179943 13.0496795,3.60043761 12.919099,3.46985709 L11.9324907,2.48324878 C11.8019102,2.35266826 11.6205484,2.28012353 11.4391866,2.28012353 C11.2578247,2.28012353 11.0764629,2.35266826 10.9458824,2.48324878 L6.18694815,7.24943749 L4.05413311,5.10936798 C3.92355259,4.97878747 3.74219077,4.90624274 3.56082895,4.90624274 C3.37946712,4.90624274 3.1981053,4.97878747 3.06752479,5.10936798 L2.08091647,6.0959763 C1.95033595,6.22655681 1.87779122,6.40791863 1.87779122,6.58928046 C1.87779122,6.77064228 1.95033595,6.9520041 2.08091647,7.08258462 L5.69364399,10.6953121 C5.8242245,10.8258926 6.00558632,10.8984374 6.18694815,10.8984374 C6.36830997,10.8984374 6.54967179,10.8258926 6.68025231,10.6953121 L12.919099,4.45646541 C13.0496795,4.3258849 13.1222243,4.14452308 13.1222243,3.96316125 Z" id="check"></path>
        </g>
    </g>
</svg>
