<?xml version="1.0" encoding="UTF-8"?>
<svg width="50px" height="50px" viewBox="0 0 50 50" version="1.1" xmlns="http://www.w3.org/2000/svg" xmlns:xlink="http://www.w3.org/1999/xlink">
    <!-- Generator: Sketch 47.1 (45422) - http://www.bohemiancoding.com/sketch -->
    <title>2</title>
    <desc>Created with Sketch.</desc>
    <defs></defs>
    <g id="Default-Pages" stroke="none" stroke-width="1" fill="none" fill-rule="evenodd">
        <g id="Landing" transform="translate(-712.000000, -927.000000)" fill="#39a3f4">
            <g id="Section-2" transform="translate(252.000000, 925.000000)">
                <g id="3" transform="translate(460.000000, 2.000000)">
                    <path d="M35.5222969,17.7458766 L32.2541234,14.4777031 L41.2034209,5.52840562 L44.4715944,8.79657911 L35.5222969,17.7458766 Z M49.1753207,8.79657911 C49.1753207,8.27733659 48.9920586,7.78863775 48.6255345,7.42211362 L42.5778864,1.37446549 C42.2113622,1.00794136 41.7226634,0.824679291 41.2034209,0.824679291 C40.6841784,0.824679291 40.1954795,1.00794136 39.8289554,1.37446549 L0.549786194,40.6536347 C0.183262065,41.0201588 0,41.5088577 0,42.0281002 C0,42.5473427 0.183262065,43.0360415 0.549786194,43.4025657 L6.59743433,49.4502138 C6.96395846,49.8167379 7.4526573,50 7.97189982,50 C8.49114233,50 8.97984117,49.8167379 9.3463653,49.4502138 L48.6255345,10.1710446 C48.9920586,9.80452046 49.1753207,9.31582162 49.1753207,8.79657911 L49.1753207,8.79657911 Z M7.91081246,2.99328039 L6.99450214,0 L6.07819181,2.99328039 L3.08491142,3.90959071 L6.07819181,4.82590104 L6.99450214,7.81918143 L7.91081246,4.82590104 L10.9040929,3.90959071 L7.91081246,2.99328039 Z M47.0067196,22.541234 L46.0904093,19.5479536 L45.174099,22.541234 L42.1808186,23.4575443 L45.174099,24.3738546 L46.0904093,27.367135 L47.0067196,24.3738546 L50,23.4575443 L47.0067196,22.541234 Z M27.458766,2.99328039 L30.4520464,3.90959071 L27.458766,4.82590104 L26.5424557,7.81918143 L25.6261454,4.82590104 L22.632865,3.90959071 L25.6261454,2.99328039 L26.5424557,0 L27.458766,2.99328039 Z M18.6010996,7.94135614 L24.5876604,9.77397679 L18.6010996,11.6065974 L16.7684789,17.5931582 L14.9358583,11.6065974 L8.9492975,9.77397679 L14.9358583,7.94135614 L16.7684789,1.95479536 L18.6010996,7.94135614 Z" id="2"></path>
                </g>
            </g>
        </g>
    </g>
</svg>
