<?xml version="1.0" encoding="UTF-8"?>
<svg width="35px" height="50px" viewBox="0 0 35 50" version="1.1" xmlns="http://www.w3.org/2000/svg" xmlns:xlink="http://www.w3.org/1999/xlink">
    <!-- Generator: Sketch 47.1 (45422) - http://www.bohemiancoding.com/sketch -->
    <title>4</title>
    <desc>Created with Sketch.</desc>
    <defs></defs>
    <g id="Default-Pages" stroke="none" stroke-width="1" fill="none" fill-rule="evenodd">
        <g id="Landing" transform="translate(-252.000000, -927.000000)" fill="#39a3f4">
            <g id="Section-2" transform="translate(252.000000, 925.000000)">
                <g id="1" transform="translate(0.000000, 2.000000)">
                    <path d="M17.3913043,36.9565217 C17.3913043,39.3682065 15.455163,41.3043478 13.0434783,41.3043478 C10.6317935,41.3043478 8.69565217,39.3682065 8.69565217,36.9565217 C8.69565217,36.107337 8.9673913,35.2921196 9.375,34.6127717 C9.81657609,33.9334239 11.6168478,31.6236413 12.330163,29.3478261 C12.4320652,28.9741848 12.7717391,28.8043478 13.0434783,28.8043478 C13.3152174,28.8043478 13.6548913,28.9741848 13.7567935,29.3478261 C14.4701087,31.6236413 16.2703804,33.9334239 16.7119565,34.6127717 C17.1195652,35.2921196 17.3913043,36.107337 17.3913043,36.9565217 L17.3913043,36.9565217 Z M34.7826087,32.6086957 C34.7826087,29.1779891 33.763587,25.9850543 32.03125,23.267663 C30.298913,20.5502717 23.0298913,11.3451087 20.2785326,2.17391304 C19.8709239,0.713315217 18.4782609,0 17.3913043,0 C16.3043478,0 14.9456522,0.713315217 14.5040761,2.17391304 C11.7527174,11.3451087 4.48369565,20.5502717 2.7513587,23.267663 C1.05298913,25.9850543 0,29.1779891 0,32.6086957 C0,42.2214674 7.77853261,50 17.3913043,50 C27.0040761,50 34.7826087,42.2214674 34.7826087,32.6086957 L34.7826087,32.6086957 Z" id="4"></path>
                </g>
            </g>
        </g>
    </g>
</svg>
