<?xml version="1.0" encoding="UTF-8"?>
<svg width="59px" height="50px" viewBox="0 0 59 50" version="1.1" xmlns="http://www.w3.org/2000/svg" xmlns:xlink="http://www.w3.org/1999/xlink">
    <!-- Generator: Sketch 47.1 (45422) - http://www.bohemiancoding.com/sketch -->
    <title>1</title>
    <desc>Created with Sketch.</desc>
    <defs></defs>
    <g id="Default-Pages" stroke="none" stroke-width="1" fill="none" fill-rule="evenodd">
        <g id="Landing" transform="translate(-959.000000, -925.000000)" fill="#39a3f4">
            <g id="Section-2" transform="translate(252.000000, 925.000000)">
                <g id="4" transform="translate(707.000000, 0.000000)">
                    <path d="M58.3333333,36.4583333 C58.3333333,34.7330729 56.9335937,33.3333333 55.2083333,33.3333333 L52.0833333,33.3333333 L52.0833333,27.0833333 C52.0833333,24.8046875 50.1953125,22.9166667 47.9166667,22.9166667 L31.25,22.9166667 L31.25,16.6666667 L34.375,16.6666667 C36.1002604,16.6666667 37.5,15.2669271 37.5,13.5416667 L37.5,3.125 C37.5,1.39973958 36.1002604,0 34.375,0 L23.9583333,0 C22.2330729,0 20.8333333,1.39973958 20.8333333,3.125 L20.8333333,13.5416667 C20.8333333,15.2669271 22.2330729,16.6666667 23.9583333,16.6666667 L27.0833333,16.6666667 L27.0833333,22.9166667 L10.4166667,22.9166667 C8.13802083,22.9166667 6.25,24.8046875 6.25,27.0833333 L6.25,33.3333333 L3.125,33.3333333 C1.39973958,33.3333333 0,34.7330729 0,36.4583333 L0,46.875 C0,48.6002604 1.39973958,50 3.125,50 L13.5416667,50 C15.2669271,50 16.6666667,48.6002604 16.6666667,46.875 L16.6666667,36.4583333 C16.6666667,34.7330729 15.2669271,33.3333333 13.5416667,33.3333333 L10.4166667,33.3333333 L10.4166667,27.0833333 L27.0833333,27.0833333 L27.0833333,33.3333333 L23.9583333,33.3333333 C22.2330729,33.3333333 20.8333333,34.7330729 20.8333333,36.4583333 L20.8333333,46.875 C20.8333333,48.6002604 22.2330729,50 23.9583333,50 L34.375,50 C36.1002604,50 37.5,48.6002604 37.5,46.875 L37.5,36.4583333 C37.5,34.7330729 36.1002604,33.3333333 34.375,33.3333333 L31.25,33.3333333 L31.25,27.0833333 L47.9166667,27.0833333 L47.9166667,33.3333333 L44.7916667,33.3333333 C43.0664062,33.3333333 41.6666667,34.7330729 41.6666667,36.4583333 L41.6666667,46.875 C41.6666667,48.6002604 43.0664062,50 44.7916667,50 L55.2083333,50 C56.9335937,50 58.3333333,48.6002604 58.3333333,46.875 L58.3333333,36.4583333 Z" id="1"></path>
                </g>
            </g>
        </g>
    </g>
</svg>
