<?xml version="1.0" encoding="UTF-8"?>
<svg width="64px" height="50px" viewBox="0 0 64 50" version="1.1" xmlns="http://www.w3.org/2000/svg" xmlns:xlink="http://www.w3.org/1999/xlink">
    <!-- Generator: Sketch 47.1 (45422) - http://www.bohemiancoding.com/sketch -->
    <title>3</title>
    <desc>Created with Sketch.</desc>
    <defs></defs>
    <g id="Default-Pages" stroke="none" stroke-width="1" fill="none" fill-rule="evenodd">
        <g id="Landing" transform="translate(-472.000000, -927.000000)" fill="#39a3f4">
            <g id="Section-2" transform="translate(252.000000, 925.000000)">
                <g id="2" transform="translate(220.000000, 2.000000)">
                    <path d="M45.4545455,20.4545455 C45.4545455,21.6974432 44.4247159,22.7272727 43.1818182,22.7272727 C34.4460227,22.7272727 28.9417614,25.0355114 22.5142045,30.8238636 C20.8096591,32.421875 19.2471591,34.1264205 17.5071023,35.6889205 C17.0454545,36.1150568 16.5482955,36.3636364 15.9090909,36.3636364 C14.6661932,36.3636364 13.6363636,35.3338068 13.6363636,34.0909091 C13.6363636,33.4517045 13.8849432,32.9545455 14.3110795,32.4928977 C22.5142045,23.4375 30.6107955,18.1818182 43.1818182,18.1818182 C44.4247159,18.1818182 45.4545455,19.2116477 45.4545455,20.4545455 L45.4545455,20.4545455 Z M63.6363636,13.4232955 C63.6363636,10.4048295 62.3224432,0 58.3096591,0 C55.3267045,0 54.3678977,1.66903409 52.4147727,3.48011364 C47.4786932,8.16761364 31.9957386,5.36221591 24.7159091,7.77698864 C14.6306818,11.1150568 5.64630682,19.1761364 5.64630682,30.46875 C5.64630682,31.7116477 5.75284091,32.9545455 5.96590909,34.1619318 C6.10795455,34.8721591 7.03125,36.7542614 7.03125,37.0738636 C7.03125,39.1335227 0,42.0099432 0,45.703125 C0,46.4488636 0.248579545,46.6619318 0.568181818,47.265625 C1.52698864,48.8991477 2.20170455,50 4.43892045,50 C7.52840909,50 9.65909091,42.7556818 11.4346591,42.7556818 C12.8551136,42.7556818 16.2642045,44.9928977 17.96875,45.5610795 C21.2002841,46.6619318 24.7159091,47.2301136 28.125,47.2301136 C33.5227273,47.2301136 38.8849432,45.8096591 43.6789773,43.3948864 C53.5511364,38.4943182 60.6534091,31.3210227 62.9261364,20.2769886 C63.3877841,18.0042614 63.6363636,15.6960227 63.6363636,13.4232955 L63.6363636,13.4232955 Z" id="3"></path>
                </g>
            </g>
        </g>
    </g>
</svg>
