<?xml version="1.0" encoding="UTF-8"?>
<svg width="278px" height="54px" viewBox="0 0 278 54" version="1.1" xmlns="http://www.w3.org/2000/svg" xmlns:xlink="http://www.w3.org/1999/xlink">
    <!-- Generator: Sketch 47.1 (45422) - http://www.bohemiancoding.com/sketch -->
    <title>mask</title>
    <desc>Created with Sketch.</desc>
    <defs>
        <rect id="path-1" x="0" y="0" width="286" height="104"></rect>
        <linearGradient x1="50%" y1="0.729432398%" x2="50%" y2="100%" id="linearGradient-3">
            <stop stop-color="#FFFFFF" stop-opacity="0.8" offset="0%"></stop>
            <stop stop-color="#6CBB37" offset="100%"></stop>
        </linearGradient>
    </defs>
    <g id="Page-1" stroke="none" stroke-width="1" fill="none" fill-rule="evenodd">
        <g id="apollo-2---vertical-/-dark" transform="translate(-529.000000, -113.000000)">
            <g id="boxes" transform="translate(215.000000, 63.000000)">
                <g id="box-/-views" transform="translate(306.000000, 0.000000)">
                    <g id="mask">
                        <mask id="mask-2" fill="white">
                            <use xlink:href="#path-1"></use>
                        </mask>
                        <g id="bg-box"></g>
                        <path d="M-5.90392792,128.004096 C3.1775168,128.004096 7.54506516,90.7199458 20.7026559,90.9302186 C33.8602466,91.1404913 30.7809669,69.8046911 47.1876681,69.945288 C63.5943693,70.0858848 57.1571783,91.1951723 74.0234814,90.9302186 C90.8897844,90.6652648 86.9279191,85.4175809 101.084804,85.4175809 C115.241689,85.4175809 110.088122,69.9688763 128.396695,69.945288 C146.705267,69.9216996 139.996648,90.8407878 153.956993,90.9302186 C167.917339,91.0196493 164.635179,85.4959193 179.906762,85.4175809 C195.178345,85.3392426 194.753295,90.9617444 207.049934,90.9302186 C219.346574,90.8986928 220.049889,80.8749182 233.308858,80.8252109 C246.567827,80.7755035 247.089356,93.963529 259.809298,93.8022128 C272.529239,93.6408966 274.731012,50.0920511 286.842464,50.1057612 C294.916764,50.1149014 296.159699,53.3785575 290.571268,59.8967295 L290.571268,124 L-10.5380012,124 C-13.5029155,126.669397 -11.9582244,128.004096 -5.90392792,128.004096 Z" id="Primary2" fill="url(#linearGradient-3)" opacity="0.600000024" mask="url(#mask-2)"></path>
                    </g>
                </g>
            </g>
        </g>
    </g>
</svg>