<?xml version="1.0" encoding="UTF-8"?>
<svg width="286px" height="45px" viewBox="0 0 286 45" version="1.1" xmlns="http://www.w3.org/2000/svg" xmlns:xlink="http://www.w3.org/1999/xlink">
    <!-- Generator: Sketch 47.1 (45422) - http://www.bohemiancoding.com/sketch -->
    <title>mask</title>
    <desc>Created with Sketch.</desc>
    <defs>
        <rect id="path-1" x="0" y="0" width="286" height="104"></rect>
        <linearGradient x1="50%" y1="0%" x2="50%" y2="100%" id="linearGradient-3">
            <stop stop-color="#FFFFFF" stop-opacity="0.8" offset="0%"></stop>
            <stop stop-color="#309FF4" offset="100%"></stop>
        </linearGradient>
    </defs>
    <g id="Page-1" stroke="none" stroke-width="1" fill="none" fill-rule="evenodd">
        <g id="apollo-2---vertical-/-dark" transform="translate(-215.000000, -122.000000)">
            <g id="boxes" transform="translate(215.000000, 63.000000)">
                <g id="box-/-sales">
                    <g id="mask">
                        <mask id="mask-2" fill="white">
                            <use xlink:href="#path-1"></use>
                        </mask>
                        <g id="bg-box"></g>
                        <path d="M-5.90392792,107.711481 C3.1775168,107.711481 7.54506516,65.3033862 20.7026559,65.5136589 C33.8602466,65.7239317 30.7809669,97.1006614 47.1876681,97.2412582 C63.5943693,97.381855 57.1571783,78.2615015 74.0234814,77.9965478 C90.8897844,77.7315941 86.9279191,85.4175809 101.084804,85.4175809 C115.241689,85.4175809 110.088122,60.8754935 128.396695,60.8519052 C146.705267,60.8283169 139.996648,76.3477623 153.956993,76.4371931 C167.917339,76.5266238 164.635179,102.179805 179.906762,102.101466 C195.178345,102.023128 194.753295,82.7715714 207.049934,82.7400455 C219.346574,82.7085197 220.049889,98.6798513 233.308858,98.6301439 C246.567827,98.5804366 247.089356,85.5788971 259.809298,85.4175809 C272.529239,85.2562647 274.731012,59.8830194 286.842464,59.8967295 C294.916764,59.9058697 296.159699,59.9058697 290.571268,59.8967295 L290.571268,124 L-10.5380012,124 C-13.5029155,113.140987 -11.9582244,107.711481 -5.90392792,107.711481 Z" id="Primary" fill="url(#linearGradient-3)" opacity="0.600000024" mask="url(#mask-2)"></path>
                    </g>
                </g>
            </g>
        </g>
    </g>
</svg>