<?xml version="1.0" encoding="UTF-8"?>
<svg width="12px" height="12px" viewBox="0 0 12 12" version="1.1" xmlns="http://www.w3.org/2000/svg" xmlns:xlink="http://www.w3.org/1999/xlink">
    <!-- Generator: Sketch 47.1 (45422) - http://www.bohemiancoding.com/sketch -->
    <title>back</title>
    <desc>Created with Sketch.</desc>
    <defs></defs>
    <g id="Page-1" stroke="none" stroke-width="1" fill="none" fill-rule="evenodd">
        <g id="Artboard" transform="translate(-2.000000, -1.000000)" fill="#ffffff">
            <path d="M13.1428704,6.35713732 C13.1428704,5.86383316 12.8164191,5.42856479 12.2940971,5.42856479 L7.18694815,5.42856479 L9.31250872,3.30300422 C9.48661607,3.12889687 9.58817869,2.88949926 9.58817869,2.64284718 C9.58817869,2.3961951 9.48661607,2.15679749 9.31250872,1.98269014 L8.76842325,1.44585915 C8.5943159,1.2717518 8.36217276,1.17018917 8.11552068,1.17018917 C7.8688686,1.17018917 7.629471,1.2717518 7.45536365,1.44585915 L2.73270177,6.16126655 C2.56584889,6.3353739 2.46428627,6.57477151 2.46428627,6.82142359 C2.46428627,7.06807567 2.56584889,7.30747328 2.73270177,7.47432615 L7.45536365,12.2042425 C7.629471,12.3710954 7.8688686,12.472658 8.11552068,12.472658 C8.36217276,12.472658 8.60157037,12.3710954 8.76842325,12.2042425 L9.31250872,11.6529026 C9.48661607,11.4860497 9.58817869,11.2466521 9.58817869,11 C9.58817869,10.7533479 9.48661607,10.5139503 9.31250872,10.3470974 L7.18694815,8.21428239 L12.2940971,8.21428239 C12.8164191,8.21428239 13.1428704,7.77901402 13.1428704,7.28570986 L13.1428704,6.35713732 Z" id="back"></path>
        </g>
    </g>
</svg>
